<svg xmlns="http://www.w3.org/2000/svg" width="16" height="16" fill="none" viewBox="0 0 16 16"><g fill="#fc7f7f"><path d="M13 7a2 2 0 1 1 0 4 2 2 0 1 1-2 2H8.809a.5.5 0 0 1-.448-.724L9 11l-.639-1.276A.5.5 0 0 1 8.81 9H11a2 2 0 0 1 2-2M3 6a2 2 0 0 1 2 2h1.691a.5.5 0 0 1 .448.276L8 10l-.861 1.724A.5.5 0 0 1 6.69 12H5a2 2 0 1 1-2-2 2 2 0 1 1 0-4M2.293 2.293a1 1 0 0 1 1.414 0l1 1a1 1 0 1 1-1.414 1.414l-1-1a1 1 0 0 1 0-1.414M12.293 2.293a1 1 0 1 1 1.414 1.414l-1 1a1 1 0 1 1-1.414-1.414zM8 0a1 1 0 0 1 1 1v2a1 1 0 0 1-2 0V1a1 1 0 0 1 1-1"/></g></svg>