<svg xmlns="http://www.w3.org/2000/svg" width="16" height="16" fill="none" viewBox="0 0 16 16"><g fill="#fc7f7f"><path d="M14 7a1 1 0 1 1 0 2h-2v1.126c1.725.444 3 2.01 3 3.874a1 1 0 1 1-2 0c0-.81-.483-1.507-1.177-1.821a4.001 4.001 0 0 1-7.647 0A2 2 0 0 0 3 14a1 1 0 1 1-2 0 4 4 0 0 1 3-3.874V9H2a1 1 0 0 1 0-2zM8 1a4 4 0 0 1 3.763 2.644 1 1 0 0 0 .232-.541l.01-.206A1 1 0 0 1 14 3c0 1.306-.835 2.588-2 3H4c-1.165-.412-2-1.694-2-3a1 1 0 0 1 1.995-.103l.01.206c.02.205.105.391.231.54A4 4 0 0 1 8 1"/></g></svg>