<svg xmlns="http://www.w3.org/2000/svg" width="16" height="16" fill="none" viewBox="0 0 16 16"><g fill="#fc7f7f"><path d="M11.104 1A3.85 3.85 0 0 0 8.32 2.167l-.01.01-.318.334a1 1 0 1 0 1.447 1.38l.313-.327A1.85 1.85 0 0 1 11.086 3c.489.005.967.211 1.33.593.364.385.58.915.584 1.48.005.562-.2 1.094-.555 1.485l-1.752 1.848a1.9 1.9 0 0 1-.688.468 1.79 1.79 0 0 1-1.564-.119 2 2 0 0 1-.625-.573L6.184 9.339c.333.47.762.863 1.258 1.149a3.792 3.792 0 0 0 3.295.248 3.9 3.9 0 0 0 1.408-.954l1.758-1.855.012-.013A4.18 4.18 0 0 0 15 5.056a4.18 4.18 0 0 0-1.133-2.838A3.86 3.86 0 0 0 11.105 1"/><path d="M6.938 5.01a3.8 3.8 0 0 0-1.675.254 3.9 3.9 0 0 0-1.408.954L2.097 8.073l-.012.013A4.18 4.18 0 0 0 1 10.944a4.18 4.18 0 0 0 1.133 2.839A3.86 3.86 0 0 0 4.896 15a3.85 3.85 0 0 0 2.784-1.167l.012-.013.314-.331a1 1 0 1 0-1.451-1.376l-.308.324A1.85 1.85 0 0 1 4.914 13a1.86 1.86 0 0 1-1.33-.593A2.18 2.18 0 0 1 3 10.927c-.005-.562.2-1.094.555-1.485l1.752-1.848c.198-.21.434-.368.688-.468a1.79 1.79 0 0 1 1.564.119c.241.139.455.333.625.573l1.632-1.157a4 4 0 0 0-1.258-1.149 3.8 3.8 0 0 0-1.62-.501"/></g></svg>