<svg xmlns="http://www.w3.org/2000/svg" width="16" height="16" fill="none" viewBox="0 0 16 16"><g fill="#fc7f7f"><path d="M4.113 6.945a4 4 0 0 0 2.942 2.942L9.068 11.9l-.073.015Q9 11.957 9 12v1h1a1 1 0 0 1 0 2H6a1 1 0 1 1 0-2h1v-1q0-.043.004-.085A6 6 0 0 1 2 6c0-.319.15-.603.382-.786zM8 1a3 3 0 0 1 3 3v2c0 .978-.47 1.844-1.194 2.392l.714.713A4 4 0 0 0 12 6a1 1 0 0 1 2 0c0 1.806-.8 3.423-2.063 4.523l2.77 2.77a1 1 0 0 1-1.414 1.414l-12-12a1 1 0 1 1 1.414-1.414l2.318 2.318A3 3 0 0 1 8 1"/></g></svg>