<svg xmlns="http://www.w3.org/2000/svg" width="16" height="16" fill="none" viewBox="0 0 16 16"><path fill="#fc7f7f" d="M8 3c.9 0 1.744.239 2.474.655 2.186-.646 3.924-.574 4.454.345s-.276 2.46-1.929 4.03a5 5 0 0 1-7.473 4.314c-2.186.646-3.924.575-4.454-.344S1.348 9.54 3 7.97A5 5 0 0 1 8 3m4.696 1.134c-.262-.453-1.021-.561-2.053-.377.408.254.778.566 1.098.928C11.735 4.702 11.045 6.242 8 8 4.94 9.767 3.257 9.583 3.257 9.583a5 5 0 0 1-.255-1.415c-.675.801-.96 1.513-.699 1.966.552.956 3.327.389 6.196-1.268 2.87-1.657 4.749-3.776 4.197-4.732"/></svg>