<svg xmlns="http://www.w3.org/2000/svg" width="16" height="16" fill="none" viewBox="0 0 16 16"><g fill="#8da5f3"><path d="M14 8.62c0 1.822-1 6.38-4 6.38-1 0-2-.912-2-.912S7 15 6 15c-1.736 0-2.802-1.527-3.393-3.167a2.5 2.5 0 1 0-.479-4.423C2.8 4.506 5 4 8 5.917c3-1.917 6-.775 6 2.702"/><path d="M8.764.993c.26-.052.548.014.79.175.243.161.415.403.466.663a.86.86 0 0 1-.188.724q-.07.082-.136.168c-.38.462-.628 1.028-.8 1.659q-.452.164-.896.392a8 8 0 0 0-.636-.292c.032-.914.197-1.857.662-2.766q.068-.137.142-.27a.86.86 0 0 1 .596-.453"/></g></svg>