<svg xmlns="http://www.w3.org/2000/svg" width="16" height="16" fill="none" viewBox="0 0 16 16"><g fill="#8da5f3"><path d="M5.043 9.456a3.75 3.75 0 0 0 1.5 1.5L5 12.5V14a1 1 0 0 1-2 0v-1H2a1 1 0 0 1 0-2h1.5zM8.608.867C9.613.715 11.688.689 13.5 2.5c1.811 1.812 1.785 3.886 1.633 4.891-.061.402-.308.74-.633.983l-.884.664a7.32 7.32 0 0 1-5.823 1.32 2.745 2.745 0 0 1-2.152-2.152 7.3 7.3 0 0 1-.105-2.16A2.5 2.5 0 1 0 7.24 2.013l.386-.515c.244-.325.582-.571.983-.632m4.22 2.547c-.78-.78-1.73-1.097-2.121-.707-.39.391-.074 1.34.707 2.122.78.78 1.73 1.097 2.121.707.39-.39.074-1.34-.707-2.122"/></g></svg>