<svg xmlns="http://www.w3.org/2000/svg" width="16" height="16" fill="none" viewBox="0 0 16 16"><g fill="#8da5f3"><path d="M7.611 6.974a6.7 6.7 0 0 1 1.414 1.414l-4.612 4.611.294.294a1 1 0 1 1-1.414 1.414l-2-2a1 1 0 1 1 1.414-1.414l.292.292zM13.05 1A1.95 1.95 0 0 1 15 2.95a5.85 5.85 0 0 1-1.281 3.652L11.447 9.44a.43.43 0 0 1-.73-.098 7.7 7.7 0 0 0-2.393-3.08 7.7 7.7 0 0 0-1.666-.98.43.43 0 0 1-.098-.73l2.838-2.27A5.85 5.85 0 0 1 13.051 1m.304 1.646a.5.5 0 0 0-.707 0l-3 3a.5.5 0 1 0 .707.708l3-3a.5.5 0 0 0 0-.708"/></g></svg>