<svg xmlns="http://www.w3.org/2000/svg" width="16" height="16" fill="none" viewBox="0 0 16 16"><g fill="#e0e0e0"><path d="M3.342 1.244a1.74 1.74 0 0 1 2.27.161l1.242 1.242.44-.44a1 1 0 0 1 1.413 0l5.086 5.086a1 1 0 0 1 0 1.414l-6.086 6.086-.076.068a1 1 0 0 1-1.262 0l-.076-.068-5.086-5.086A1 1 0 0 1 1.14 8.37l.068-.076 3.19-3.19-1.241-1.24a1.737 1.737 0 0 1 .186-2.619M1.914 9 7 14.086 13.086 8H2.914zm2.992-6.888a.738.738 0 0 0-1.043 1.043l1.24 1.242 1.044-1.043zM14.56 11.44a1.5 1.5 0 1 1-2.12 0l1.06-1.061z"/></g></svg>