<svg xmlns="http://www.w3.org/2000/svg" width="16" height="16" fill="none" viewBox="0 0 16 16"><path fill="#e0e0e0" d="M2.792 1.018c3.36.154 6.776 1.295 9.626 3.768 1.09.946 1.581 2.378 1.582 3.823a5.37 5.37 0 0 1-1.065 3.217l.938 1.69a1 1 0 0 1-1.747.97l-.71-1.276c-.817.5-1.778.79-2.807.79h-.242c-3.03 0-5.38-2.396-5.233-5.421.113-2.303.078-4.578-.817-6.851-.135-.342.108-.726.475-.71m1.906 1.523a.5.5 0 0 0-.395.92c1.635.7 3.155 2.163 4.36 3.776 1.202 1.61 2.044 3.307 2.357 4.401a.5.5 0 0 0 .96-.275c-.353-1.24-1.262-3.043-2.517-4.724-1.253-1.678-2.9-3.299-4.765-4.098"/></svg>