<svg xmlns="http://www.w3.org/2000/svg" width="16" height="16" fill="none" viewBox="0 0 16 16"><g fill="#e0e0e0" clip-path="url(#a)"><path d="M6 9a1 1 0 0 1 .8 1.6l-.723.962A2.5 2.5 0 0 1 7 13.5a2.5 2.5 0 0 1-4.665 1.25 1 1 0 0 1 1.732-1A.5.5 0 1 0 4.5 13l-.034-.002q-.022 0-.043-.003a1 1 0 0 1-.157-.024l-.017-.004-.07-.02-.038-.015-.057-.024q-.013-.005-.025-.012l-.068-.036-.012-.007-.068-.046-.01-.007-.015-.012-.048-.04-.031-.028-.04-.042A1 1 0 0 1 3.7 12.6l-.02-.027-.027-.042-.026-.043a1 1 0 0 1-.067-.148l-.008-.02a1 1 0 0 1-.052-.295L3.5 12a1 1 0 0 1 .054-.323q.004-.012.009-.025l.028-.07.014-.029.026-.047.023-.038.04-.059.006-.008.301-.4H3a1 1 0 0 1 0-2zM11.663 5.005a2.515 2.515 0 0 1 2.316 2.17c.115.88-.327 1.587-.772 2.032l-.793.793H13a1 1 0 0 1 0 2h-3a1 1 0 0 1-.707-1.707l2.5-2.5c.205-.205.207-.327.203-.358A.516.516 0 0 0 11.532 7a.515.515 0 0 0-.515.37 1 1 0 0 1-1.932-.518 2.515 2.515 0 0 1 2.578-1.848M4.684.052A1 1 0 0 1 6 1v5a1 1 0 0 1-2 0V2.387l-.184.061A1 1 0 0 1 3.184.552z"/></g><defs><clipPath id="a"><path fill="#fff" d="M0 0h16v16H0z"/></clipPath></defs></svg>