<svg xmlns="http://www.w3.org/2000/svg" width="16" height="16" fill="none" viewBox="0 0 16 16"><path fill="#e0e0e0" d="M9 16H7v-1H6a2 2 0 0 1-2-2L2.52 10.777A.5.5 0 0 1 2.935 10H4V9L2.52 6.777A.5.5 0 0 1 2.935 6H4V5L2.52 2.777A.5.5 0 0 1 2.935 2H4a2 2 0 0 1 2-2h4a2 2 0 0 1 2 2h1.066a.5.5 0 0 1 .416.777L12 5v1h1.066a.5.5 0 0 1 .416.777L12 9v1h1.066a.5.5 0 0 1 .416.777L12 13a2 2 0 0 1-2 2H9zm-1-6a1.5 1.5 0 1 0 0 3 1.5 1.5 0 0 0 0-3m0-4a1.5 1.5 0 1 0 0 3 1.5 1.5 0 0 0 0-3m0-4a1.5 1.5 0 1 0 0 3 1.5 1.5 0 0 0 0-3"/></svg>